<svg width="81" height="34" viewBox="0 0 81 34" fill="none" xmlns="http://www.w3.org/2000/svg">
<path d="M15.6721 13C15.1681 12.5035 14.514 11.7155 14.1771 10.6252C13.6845 9.04116 14.3187 8.29904 14.0101 6.66639C13.574 4.35099 11.8101 3.20679 12.0168 3.02328C12.2631 2.802 15.12 4.17288 15.6721 6.50717C15.9779 7.7944 15.4088 8.66065 16.0034 10.3068C16.2893 11.1029 16.7055 11.6885 17 12.0501C16.5583 12.3658 16.1138 12.6843 15.6721 13Z" fill="#F4C431"/>
<path d="M10.7321 20C10.0179 19.97 8.99109 19.814 7.96989 19.1841C6.48831 18.2691 6.41019 17.2102 5.02348 16.1243C3.05921 14.5825 0.986119 14.9544 1.00007 14.6574C1.01681 14.3005 4.03297 13.3106 6.09211 14.7834C7.23049 15.5964 7.44255 16.7063 9.0441 17.5942C9.81697 18.0232 10.5313 18.1912 11 18.2631C10.9107 18.8421 10.8214 19.421 10.7321 20Z" fill="#F4C431"/>
<path d="M10 25.4189C9.40275 25.7216 8.50176 26.0651 7.42721 25.9894C5.86771 25.8817 5.40318 24.9968 3.85644 24.6941C1.66396 24.2633 0.104456 25.547 0.00491348 25.2821C-0.115048 24.9619 1.98045 22.7061 4.22654 23.0321C5.46444 23.2126 6.06169 24.0771 7.70797 24.1091C8.50176 24.1236 9.15261 23.9373 9.56355 23.786C9.70903 24.3303 9.85452 24.8746 10 25.4189Z" fill="#F4C431"/>
<path d="M13 32.3628C12.5223 32.939 11.7575 33.6952 10.6641 34.1342C9.07647 34.7714 8.28127 34.1433 6.63013 34.5885C4.29424 35.2165 3.22846 37.1922 3.02966 36.9848C2.78944 36.7348 4.01813 33.5702 6.36783 32.814C7.66555 32.3964 8.58223 32.9451 10.2306 32.1921C11.0258 31.8293 11.6001 31.3415 11.9508 31C12.2987 31.4543 12.6493 31.9085 13 32.3628Z" fill="#F4C431"/>
<path d="M12.4736 15C12.2444 14.6633 11.9292 14.1946 11.5567 13.6326C10.283 11.7084 9.88442 11.2086 10.0277 11.0481C10.1866 10.872 10.9211 11.2112 11.403 11.5557C12.148 12.0891 12.2209 12.5864 12.9815 13.125C13.3722 13.4021 13.7447 13.5497 14 13.6326C13.4947 14.0884 12.9841 14.5442 12.4736 15Z" fill="#F4C431"/>
<path d="M19.2372 11C19.2098 10.5648 19.1732 9.95664 19.1367 9.2341C19.0065 6.75681 18.9243 6.0789 19.1024 6.00637C19.3011 5.92547 19.7121 6.63127 19.9291 7.21154C20.2647 8.10704 20.1003 8.6092 20.4451 9.51865C20.6209 9.98454 20.8424 10.3221 21 10.5341C20.4109 10.6876 19.824 10.8438 19.2372 11Z" fill="#F4C431"/>
<path d="M24.1422 10C24.0125 9.35131 23.9047 8.39001 24.1334 7.32449C24.4655 5.77962 25.1955 5.46179 25.6705 3.96122C26.3434 1.8354 25.6419 0.0560658 25.8552 0.00135725C26.1103 -0.0663772 27.4495 2.41374 26.8447 4.61251C26.5127 5.82391 25.7738 6.27721 25.4836 7.92368C25.345 8.71826 25.378 9.40081 25.4242 9.83848C24.9976 9.89058 24.571 9.94529 24.1422 10Z" fill="#F4C431"/>
<path d="M27 10.3135C27.218 9.92908 27.52 9.39363 27.8905 8.75657C29.1516 6.58179 29.4412 5.95571 29.6903 6.00239C29.9674 6.05457 30.0484 6.90581 29.9736 7.52913C29.8553 8.49021 29.3789 8.81698 29.2637 9.80002C29.2045 10.3025 29.2699 10.7227 29.3353 11C28.5538 10.7721 27.7753 10.5442 27 10.3135Z" fill="#F4C431"/>
<path d="M10.6122 23C10.2025 22.8776 9.63317 22.7053 8.95663 22.4955C6.641 21.7737 5.98646 21.6263 6.00021 21.4215C6.01671 21.1942 6.85276 21.0219 7.4798 21.0019C8.44785 20.9719 8.83287 21.3091 9.82018 21.2741C10.3262 21.2567 10.7332 21.1493 11 21.0618C10.8707 21.7062 10.7415 22.3531 10.6122 23Z" fill="#F4C431"/>
<path d="M11 30.3156C10.5657 30.386 9.96045 30.481 9.24033 30.5913C6.76895 30.9588 6.09647 31.1242 6.0096 30.8945C5.91153 30.6372 6.58402 30.0307 7.14162 29.6938C8.00744 29.1762 8.52582 29.3538 9.40845 28.8209C9.85958 28.5483 10.1762 28.2267 10.3751 28C10.5853 28.7688 10.7927 29.5437 11 30.3156Z" fill="#F4C431"/>
<path d="M42.9048 20.8303C42.4845 19.578 41.8783 18.7149 40.4571 18.7149C39.6422 18.7149 39.0102 19.255 39.0102 20.1181C39.0102 21.0474 39.6879 21.4789 40.9918 22.0402C42.9963 22.9245 44 23.5732 44 24.9976C44 26.9833 42.0413 28 40.1969 28C38.9845 28 37.9122 27.6532 37.4203 27.3963C37.3031 26.7689 37.0944 25.5827 37 24.8705L37.6777 24.762C38.098 26.144 38.913 27.2666 40.5458 27.2666C41.4322 27.2666 42.1785 26.7053 42.1785 25.7972C42.1785 24.8255 41.5494 24.3278 40.3113 23.7665C38.6785 23.0331 37.3489 22.3421 37.3489 20.7853C37.3489 19.21 38.7958 18 40.9861 18C41.9669 18 42.759 18.2171 43.2251 18.2806C43.2937 18.7996 43.4596 20.1604 43.5739 20.6767L42.9048 20.8303Z" fill="black"/>
<path d="M49.5867 26.7189C49.2215 26.9125 48.88 27 48.6646 27C47.2933 27 46.5657 26.1568 46.5657 24.4255V18.1309H45.0867L45 17.8711L45.5779 17.2427H46.563V15.4265C46.9702 14.9943 47.5928 14.4322 48 14L48.3205 14.0424C48.2785 14.9519 48.2574 16.206 48.2574 17.2427H50.7005C50.8923 17.4601 50.8292 17.9347 50.5718 18.1283H48.2574V23.6645C48.2574 25.4171 48.9431 25.7406 49.5 25.7406C50.0149 25.7406 50.5061 25.547 50.8082 25.3932L51 25.9553L49.5867 26.7189Z" fill="black"/>
<path d="M57.5258 28H52V27.3843C53.514 27.252 53.6583 27.1412 53.6583 25.71V21.1272C53.6583 19.6743 53.5611 19.6068 52.1679 19.4529V18.902C53.3461 18.7264 54.4271 18.4618 55.5552 18C55.5552 18.7264 55.5552 19.6959 55.5552 20.4224C56.3947 19.2773 57.405 18.0648 58.6068 18.0648C59.4963 18.0648 60 18.5725 60 19.1234C60 19.6311 59.6141 20.1145 59.1841 20.3359C58.9426 20.4683 58.7511 20.4467 58.5596 20.2927C58.2003 19.9633 57.9116 19.7418 57.4786 19.7418C56.975 19.7418 56.0854 20.4251 55.5552 21.5485V25.6884C55.5552 27.1412 55.676 27.252 57.5258 27.3843V28Z" fill="black"/>
<path d="M65.046 18C67.888 18 70 20.0524 70 22.8385C70 26.3369 67.2722 28 65.046 28C61.9086 28 60 25.6033 60 23.1827C60 19.6631 62.8866 18 65.046 18ZM64.7729 18.7362C63.3853 18.7362 62.1371 20.0101 62.1371 22.5154C62.1371 25.259 63.4104 27.2452 65.2745 27.2452C66.6843 27.2452 67.8657 26.2733 67.8657 23.3125C67.8629 20.786 66.7735 18.7362 64.7729 18.7362Z" fill="black"/>
<path d="M81 18.5797C79.9173 18.7509 79.6874 18.9248 79.1665 20.1474C78.6456 21.3515 78.0838 22.8112 76.6461 26.5526C75.2926 29.991 74.9173 31.3243 74.5827 32.4414C74.4576 32.892 74.2278 33 73.9571 33C73.2906 33 72.6854 32.5047 72.6854 31.9671C72.6854 31.6879 72.8309 31.4955 73.145 31.2162C73.8115 30.6787 74.2916 30.1623 74.5393 29.6248C74.976 28.7211 75.2901 27.9701 75.3922 27.6908C75.4765 27.3694 75.4765 27.1744 75.3514 26.8108C74.5393 24.3604 73.4132 21.7177 72.7901 20.1711C72.333 18.9881 72.144 18.7298 71 18.5797V18H75.2084V18.5797C74.2508 18.7298 74.1461 18.9459 74.4168 19.739L76.4367 25.027C77.0189 23.5436 77.8539 21.1591 78.2906 19.8048C78.5409 18.9881 78.3953 18.7509 77.1874 18.5797V18H81V18.5797Z" fill="black"/>
<path d="M35 13H33V27H35V13Z" fill="black"/>
<path d="M37.9384 32.105C37.7019 30.9456 36.7777 30.1567 36.2645 29.9488C34.9668 29.4211 32.933 28.8081 30.4397 28.9174C30.2006 28.928 29.8459 28.9494 29.408 29C28.7255 27.3369 28.0485 25.6498 27.3768 23.928C26.0603 20.5458 24.8378 17.2356 23.7013 14L22.2773 14.2639L13.0699 37.4275C11.5143 41.3987 10.8023 41.7079 8 42.0597V43.2964H18.2741V42.0597C14.6255 41.6173 14.0049 41.2655 14.9828 38.3977C15.5659 36.7079 16.1865 35.0901 16.8474 33.2644H21.0844C20.9259 33.4829 20.7755 33.7095 20.6331 33.9494C19.8163 35.3433 19.3488 36.9984 19.3488 38.8827C19.3488 44.8289 23.4649 49 30.2328 49C32.7368 49 35.1522 48.3497 37.0007 47.9339C36.8959 47.3769 36.8502 46.7345 36.8341 46.0469C37.0518 44.9328 37.1109 43.5416 36.3935 42.4302H33.4784C34.4349 43.275 34.5316 44.6903 34.4617 45.4765C34.4375 45.7537 34.3435 46.3241 33.9163 46.8358C33.7927 46.9824 33.5966 47.2116 33.2151 47.4009C32.6186 47.6967 31.6944 47.9046 30.6815 47.9046C24.8969 47.9046 22.452 43.2324 22.452 38.5282C22.452 34.8822 23.7927 32.2862 26.0603 30.9776C27.0974 33.7868 28.1345 36.5959 29.1688 39.4051C29.1447 39.1786 29.005 37.5261 30.2435 36.3427C30.9475 35.6684 31.7562 35.4739 32.1216 35.4099C31.3532 33.6482 30.5874 31.8465 29.8271 30.0128C29.8728 30.0128 29.9184 30.0101 29.9668 30.0101C30.8319 30.0101 32.0544 30.1567 32.7395 30.3939C34.5961 31.0069 35.4639 32.0597 36.1732 34.5117H36.5225C36.8986 34.3918 37.4951 34.1093 37.8094 33.4856C38.0942 32.9126 37.9894 32.3555 37.9384 32.105ZM23.7873 30.8124H17.7529C19.064 27.3875 20.5337 23.4803 21.9227 19.7783C23.1667 23.1498 24.4106 26.524 25.6573 29.8955C25.0339 30.1354 24.4026 30.4392 23.7873 30.8124Z" fill="black"/>
</svg>
