<svg width="30" height="30" viewBox="0 0 30 30" fill="none" xmlns="http://www.w3.org/2000/svg">
<path d="M25.5 0H4.5C2.01472 0 0 2.01472 0 4.5V25.5C0 27.9853 2.01472 30 4.5 30H25.5C27.9853 30 30 27.9853 30 25.5V4.5C30 2.01472 27.9853 0 25.5 0Z" fill="#5281B8"/>
<path d="M16.0542 21.2695C16.3472 21.2109 16.8745 21.0938 16.8745 20.3906C16.8745 20.3906 16.8159 18.6328 17.6362 18.3984C18.4565 18.1641 19.5112 20.0977 20.6245 20.8594C21.4448 21.3867 22.0894 21.3281 22.0894 21.3281L25.0776 21.2695C25.0776 21.2695 26.6011 21.1524 25.8979 19.9219C25.8394 19.8047 25.3706 19.043 23.6128 17.4609C21.7964 15.7031 22.0894 15.9961 24.2573 13.0078C25.605 11.1914 26.1909 10.0781 26.0151 9.66798C25.7808 9.25782 24.8433 9.31642 24.8433 9.31642H21.5034C21.1519 9.31642 20.9761 9.37501 20.8003 9.66798C20.8003 9.66798 20.2729 11.1328 19.5698 12.3047C18.105 14.8242 17.519 14.9414 17.2261 14.7656C16.6987 14.4727 16.8159 13.3594 16.8159 12.5977C16.8159 9.96095 17.2261 9.02345 16.0542 8.78907C15.2925 8.67189 12.5972 8.5547 11.7769 8.96486C11.3667 9.19923 11.1323 9.60939 11.3081 9.66798C11.4839 9.66798 12.0112 9.72657 12.3042 10.0781C12.7729 10.8399 12.8315 14.4727 12.187 14.8242C11.3081 15.4688 9.08154 11.1914 8.5542 9.78517C8.43701 9.43361 8.26123 9.37501 7.85107 9.25782H4.62842C4.27685 9.25782 3.74951 9.31642 3.98389 10.0195C5.56592 13.3008 8.84717 21.3281 14.7651 21.2695H16.0542Z" fill="white"/>
</svg>
