<svg width="30" height="30" viewBox="0 0 30 30" fill="none" xmlns="http://www.w3.org/2000/svg">
<path d="M25.5 0H4.5C2.01472 0 0 2.01472 0 4.5V25.5C0 27.9853 2.01472 30 4.5 30H25.5C27.9853 30 30 27.9853 30 25.5V4.5C30 2.01472 27.9853 0 25.5 0Z" fill="#25D366"/>
<path d="M7.20708 23.0274L8.02739 19.2188C6.97305 17.5558 6.56175 15.5652 6.87065 13.6206C7.17956 11.6759 8.18744 9.91078 9.70521 8.65637C11.223 7.40196 13.1463 6.74448 15.1144 6.80728C17.0824 6.87008 18.9599 7.64884 20.3946 8.99746C21.8293 10.3461 22.7226 12.1719 22.9069 14.1323C23.0912 16.0927 22.5538 18.053 21.3956 19.6454C20.2374 21.2377 18.5379 22.3528 16.6161 22.7813C14.6942 23.2098 12.682 22.9222 10.9571 21.9727L7.20708 23.0274Z" fill="#25D366" stroke="white" stroke-width="2"/>
<path d="M18.0465 15.9961C17.8708 15.8789 17.695 15.8203 17.5192 16.0547L16.8161 16.9922C16.6403 17.1094 16.5231 17.168 16.2887 17.0508C15.4098 16.5821 14.1794 16.0547 13.1247 14.2969C13.0661 14.0625 13.1833 13.9453 13.3004 13.8281L13.8278 13.0078C13.945 12.8906 13.8864 12.7735 13.8278 12.6563L13.1247 10.9571C12.9489 10.4883 12.7731 10.5469 12.5973 10.5469H12.1286C12.0114 10.5469 11.777 10.6055 11.5426 10.8399C10.2536 12.1289 10.7809 13.9453 11.7184 15.1172C11.8942 15.3516 13.0661 17.461 15.5856 18.5742C17.4606 19.3946 17.8708 19.2774 18.3981 19.1602C19.0426 19.1016 19.6872 18.5742 19.9801 18.0469C20.0387 17.8711 20.3317 17.1094 20.0973 16.9922" fill="white"/>
</svg>
